<?xml version="1.0" encoding="UTF-8" standalone="no"?>
<!DOCTYPE svg PUBLIC "-//W3C//DTD SVG 1.1//EN"
 "http://www.w3.org/Graphics/SVG/1.1/DTD/svg11.dtd">
<!-- Generated by graphviz version 2.38.0 (20140413.2041)
 -->
<!-- Title: Harmonie Pages: 1 -->
<svg width="991pt" height="991pt"
 viewBox="0.00 0.00 991.17 991.00" xmlns="http://www.w3.org/2000/svg" xmlns:xlink="http://www.w3.org/1999/xlink">
<g id="graph0" class="graph" transform="scale(1 1) rotate(0) translate(4 987)">
<title>Harmonie</title>
<polygon fill="#fdf6e3" stroke="none" points="-4,4 -4,-987 987.173,-987 987.173,4 -4,4"/>
<!-- Build -->
<g id="node1" class="node"><title>Build</title>
<g id="a_node1"><a xlink:href="https://hirlam.org/trac/wiki/HarmonieSystemDocumentation/Build_with_makeup" xlink:title="Build" target="_blank">
<polygon fill="#eec900" stroke="black" points="311.5,-983 268.098,-965 311.5,-947 354.902,-965 311.5,-983"/>
<text text-anchor="middle" x="311.5" y="-961.3" font-family="Times,serif" font-weight="bold" font-size="14.00" fill="#268bd2">Build</text>
</a>
</g>
</g>
<!-- MasterODB -->
<g id="node2" class="node"><title>MasterODB</title>
<g id="a_node2"><a xlink:href="https://www.ecmwf.int/en/forecasts/documentation-and-support/changes-ecmwf-model/ifs-documentation" xlink:title="MasterODB" target="_blank">
<polygon fill="gray" stroke="black" points="395.5,-911 319.419,-893 395.5,-875 471.581,-893 395.5,-911"/>
<text text-anchor="middle" x="395.5" y="-889.3" font-family="Times" font-size="14.00">MasterODB</text>
</a>
</g>
</g>
<!-- Build&#45;&gt;MasterODB -->
<g id="edge23" class="edge"><title>Build&#45;&gt;MasterODB</title>
<path fill="none" stroke="black" d="M325.371,-952.441C337.952,-941.956 356.767,-926.278 371.741,-913.799"/>
<polygon fill="black" stroke="black" points="374.16,-916.339 379.601,-907.249 369.679,-910.962 374.16,-916.339"/>
</g>
<!-- gl -->
<g id="node4" class="node"><title>gl</title>
<g id="a_node4"><a xlink:href="https://hirlam.org/trac/wiki/HarmonieSystemDocumentation/PostPP/gl/Interpolation" xlink:title="gl" target="_blank">
<polygon fill="gray" stroke="black" points="83.5,-911 56.5,-893 83.5,-875 110.5,-893 83.5,-911"/>
<text text-anchor="middle" x="83.5" y="-889.3" font-family="Times" font-size="14.00">gl</text>
</a>
</g>
</g>
<!-- Build&#45;&gt;gl -->
<g id="edge24" class="edge"><title>Build&#45;&gt;gl</title>
<path fill="none" stroke="black" d="M287.531,-956.641C244.785,-943.517 155.671,-916.158 110.702,-902.351"/>
<polygon fill="black" stroke="black" points="111.626,-898.974 101.039,-899.385 109.572,-905.666 111.626,-898.974"/>
</g>
<!-- gl_grib_api -->
<g id="node5" class="node"><title>gl_grib_api</title>
<g id="a_node5"><a xlink:href="https://hirlam.org/trac/wiki/HarmonieSystemDocumentation/PostPP/gl_grib_api" xlink:title="gl_grib_api" target="_blank">
<polygon fill="gray" stroke="black" points="228.5,-911 155.773,-893 228.5,-875 301.227,-893 228.5,-911"/>
<text text-anchor="middle" x="228.5" y="-889.3" font-family="Times" font-size="14.00">gl_grib_api</text>
</a>
</g>
</g>
<!-- Build&#45;&gt;gl_grib_api -->
<g id="edge25" class="edge"><title>Build&#45;&gt;gl_grib_api</title>
<path fill="none" stroke="black" d="M297.794,-952.441C285.362,-941.956 266.772,-926.278 251.976,-913.799"/>
<polygon fill="black" stroke="black" points="254.11,-911.02 244.209,-907.249 249.597,-916.371 254.11,-911.02"/>
</g>
<!-- domain_prop_grib_api -->
<g id="node6" class="node"><title>domain_prop_grib_api</title>
<g id="a_node6"><a xlink:href="https://hirlam.org/trac/wiki/HarmonieSystemDocumentation/PostPP/gl_grib_api#domain_prop" xlink:title="domain_prop_grib_api" target="_blank">
<polygon fill="gray" stroke="black" points="619.5,-911 489.798,-893 619.5,-875 749.202,-893 619.5,-911"/>
<text text-anchor="middle" x="619.5" y="-889.3" font-family="Times" font-size="14.00">domain_prop_grib_api</text>
</a>
</g>
</g>
<!-- Build&#45;&gt;domain_prop_grib_api -->
<g id="edge26" class="edge"><title>Build&#45;&gt;domain_prop_grib_api</title>
<path fill="none" stroke="black" d="M333.86,-956.083C342.983,-953.012 353.679,-949.613 363.5,-947 427.852,-929.877 502.529,-914.972 554.558,-905.368"/>
<polygon fill="black" stroke="black" points="555.446,-908.763 564.652,-903.518 554.185,-901.878 555.446,-908.763"/>
</g>
<!-- E927 -->
<g id="node8" class="node"><title>E927</title>
<g id="a_node8"><a xlink:href="https://hirlam.org/trac/wiki/HarmonieSystemDocumentation/BoundaryFilePreparation#Usingfullpos" xlink:title="E927" target="_blank">
<polygon fill="lightgrey" stroke="black" points="416.5,-839 368.5,-839 368.5,-803 422.5,-803 422.5,-833 416.5,-839"/>
<polyline fill="none" stroke="black" points="416.5,-839 416.5,-833 "/>
<polyline fill="none" stroke="black" points="422.5,-833 416.5,-833 "/>
<text text-anchor="middle" x="395.5" y="-817.3" font-family="Times" font-size="14.00">E927</text>
</a>
</g>
</g>
<!-- MasterODB&#45;&gt;E927 -->
<g id="edge1" class="edge"><title>MasterODB&#45;&gt;E927</title>
<path fill="none" stroke="gray" stroke-dasharray="5,2" d="M395.5,-874.697C395.5,-866.983 395.5,-857.712 395.5,-849.112"/>
<polygon fill="gray" stroke="gray" points="399,-849.104 395.5,-839.104 392,-849.104 399,-849.104"/>
</g>
<!-- WriteMARSreq -->
<g id="node3" class="node"><title>WriteMARSreq</title>
<g id="a_node3"><a xlink:href="https://hirlam.org/trac/wiki/HarmonieSystemDocumentation/ObservationPreprocessing/ObservationData" xlink:title="WriteMARSreq" target="_blank">
<polygon fill="gray" stroke="black" points="468.5,-983 372.815,-965 468.5,-947 564.185,-965 468.5,-983"/>
<text text-anchor="middle" x="468.5" y="-961.3" font-family="Times" font-size="14.00">WriteMARSreq</text>
</a>
</g>
</g>
<!-- Makegrib_gribex -->
<g id="node17" class="node"><title>Makegrib_gribex</title>
<polygon fill="#eec900" stroke="black" points="111,-839 7.10543e-15,-839 7.10543e-15,-803 111,-803 111,-839"/>
<text text-anchor="middle" x="55.5" y="-817.3" font-family="Times,serif" font-weight="bold" font-size="14.00" fill="#268bd2">Makegrib_gribex</text>
</g>
<!-- gl&#45;&gt;Makegrib_gribex -->
<g id="edge2" class="edge"><title>gl&#45;&gt;Makegrib_gribex</title>
<path fill="none" stroke="gray" stroke-dasharray="5,2" d="M78.1013,-878.503C74.7052,-870.013 70.2067,-858.767 66.1176,-848.544"/>
<polygon fill="gray" stroke="gray" points="69.3356,-847.165 62.372,-839.18 62.8363,-849.765 69.3356,-847.165"/>
</g>
<!-- gl_bd -->
<g id="node7" class="node"><title>gl_bd</title>
<g id="a_node7"><a xlink:href="https://hirlam.org/trac/wiki/HarmonieSystemDocumentation/BoundaryFilePreparation#InitialandBoundaryfilegeneration" xlink:title="gl_bd" target="_blank">
<polygon fill="lightgrey" stroke="black" points="511.5,-36 463.5,-36 463.5,-0 517.5,-0 517.5,-30 511.5,-36"/>
<polyline fill="none" stroke="black" points="511.5,-36 511.5,-30 "/>
<polyline fill="none" stroke="black" points="517.5,-30 511.5,-30 "/>
<text text-anchor="middle" x="490.5" y="-14.3" font-family="Times" font-size="14.00">gl_bd</text>
</a>
</g>
</g>
<!-- gl_grib_api&#45;&gt;gl_bd -->
<g id="edge3" class="edge"><title>gl_grib_api&#45;&gt;gl_bd</title>
<path fill="none" stroke="gray" stroke-dasharray="5,2" d="M205.797,-880.502C190.099,-871.371 170.035,-857.135 158.5,-839 136.792,-804.872 139.5,-790.447 139.5,-750 139.5,-750 139.5,-750 139.5,-161 139.5,-93.8953 362.752,-43.5074 453.158,-25.8539"/>
<polygon fill="gray" stroke="gray" points="454.091,-29.2386 463.25,-23.9119 452.768,-22.3647 454.091,-29.2386"/>
</g>
<!-- gl_grib_api&#45;&gt;E927 -->
<g id="edge4" class="edge"><title>gl_grib_api&#45;&gt;E927</title>
<path fill="none" stroke="gray" stroke-dasharray="5,2" d="M254.228,-881.216C282.253,-869.469 327.31,-850.583 358.988,-837.304"/>
<polygon fill="gray" stroke="gray" points="360.487,-840.471 368.357,-833.377 357.781,-834.015 360.487,-840.471"/>
</g>
<!-- Interpol_ec_sst -->
<g id="node18" class="node"><title>Interpol_ec_sst</title>
<polygon fill="#eec900" stroke="black" points="267,-479 168,-479 168,-443 267,-443 267,-479"/>
<text text-anchor="middle" x="217.5" y="-457.3" font-family="Times,serif" font-weight="bold" font-size="14.00" fill="#268bd2">Interpol_ec_sst</text>
</g>
<!-- gl_grib_api&#45;&gt;Interpol_ec_sst -->
<g id="edge5" class="edge"><title>gl_grib_api&#45;&gt;Interpol_ec_sst</title>
<path fill="none" stroke="gray" stroke-dasharray="5,2" d="M251.203,-880.502C266.901,-871.371 286.965,-857.135 298.5,-839 320.208,-804.872 317.5,-790.447 317.5,-750 317.5,-750 317.5,-750 317.5,-604 317.5,-555.492 278.009,-511.874 248.661,-486.156"/>
<polygon fill="gray" stroke="gray" points="250.581,-483.194 240.693,-479.387 246.049,-488.529 250.581,-483.194"/>
</g>
<!-- Makegrib_grib_api -->
<g id="node19" class="node"><title>Makegrib_grib_api</title>
<polygon fill="#eec900" stroke="black" points="289.5,-839 167.5,-839 167.5,-803 289.5,-803 289.5,-839"/>
<text text-anchor="middle" x="228.5" y="-817.3" font-family="Times,serif" font-weight="bold" font-size="14.00" fill="#268bd2">Makegrib_grib_api</text>
</g>
<!-- gl_grib_api&#45;&gt;Makegrib_grib_api -->
<g id="edge6" class="edge"><title>gl_grib_api&#45;&gt;Makegrib_grib_api</title>
<path fill="none" stroke="gray" stroke-dasharray="5,2" d="M228.5,-874.697C228.5,-866.983 228.5,-857.712 228.5,-849.112"/>
<polygon fill="gray" stroke="gray" points="232,-849.104 228.5,-839.104 225,-849.104 232,-849.104"/>
</g>
<!-- domain_prop_grib_api&#45;&gt;E927 -->
<g id="edge7" class="edge"><title>domain_prop_grib_api&#45;&gt;E927</title>
<path fill="none" stroke="gray" stroke-dasharray="5,2" d="M581.755,-880.205C540.172,-867.21 473.736,-846.449 432.467,-833.552"/>
<polygon fill="gray" stroke="gray" points="433.389,-830.173 422.8,-830.531 431.301,-836.855 433.389,-830.173"/>
</g>
<!-- MARS_get_bd -->
<g id="node11" class="node"><title>MARS_get_bd</title>
<ellipse fill="lightgrey" stroke="black" cx="754.5" cy="-821" rx="64.189" ry="18"/>
<text text-anchor="middle" x="754.5" y="-817.3" font-family="Times" font-size="14.00">MARS_get_bd</text>
</g>
<!-- domain_prop_grib_api&#45;&gt;MARS_get_bd -->
<g id="edge8" class="edge"><title>domain_prop_grib_api&#45;&gt;MARS_get_bd</title>
<path fill="none" stroke="gray" stroke-dasharray="5,2" d="M645.529,-878.503C665.597,-868.098 693.65,-853.552 716.266,-841.825"/>
<polygon fill="gray" stroke="gray" points="718.003,-844.867 725.269,-837.157 714.781,-838.653 718.003,-844.867"/>
</g>
<!-- MARS_prepare -->
<g id="node9" class="node"><title>MARS_prepare</title>
<g id="a_node9"><a xlink:title="Analysis after blending" target="_blank">
<polygon fill="lightgrey" stroke="black" points="883,-407 786,-407 786,-371 889,-371 889,-401 883,-407"/>
<polyline fill="none" stroke="black" points="883,-407 883,-401 "/>
<polyline fill="none" stroke="black" points="889,-401 883,-401 "/>
<text text-anchor="middle" x="837.5" y="-385.3" font-family="Times" font-size="14.00">MARS_prepare</text>
</a>
</g>
</g>
<!-- Prefetch_boundaries -->
<g id="node20" class="node"><title>Prefetch_boundaries</title>
<polygon fill="#eec900" stroke="black" points="758.5,-335 630.5,-335 630.5,-299 758.5,-299 758.5,-335"/>
<text text-anchor="middle" x="694.5" y="-313.3" font-family="Times,serif" font-weight="bold" font-size="14.00" fill="#268bd2">Prefetch_boundaries</text>
</g>
<!-- MARS_prepare&#45;&gt;Prefetch_boundaries -->
<g id="edge9" class="edge"><title>MARS_prepare&#45;&gt;Prefetch_boundaries</title>
<path fill="none" stroke="gray" stroke-dasharray="5,2" d="M802.518,-370.876C783.302,-361.469 759.274,-349.708 738.763,-339.667"/>
<polygon fill="gray" stroke="gray" points="740.137,-336.443 729.616,-335.19 737.059,-342.73 740.137,-336.443"/>
</g>
<!-- MARS_umbrella -->
<g id="node10" class="node"><title>MARS_umbrella</title>
<ellipse fill="lightgrey" stroke="black" cx="754.5" cy="-749" rx="72.2875" ry="18"/>
<text text-anchor="middle" x="754.5" y="-745.3" font-family="Times" font-size="14.00">MARS_umbrella</text>
</g>
<!-- Boundary_strategypl -->
<g id="node13" class="node"><title>Boundary_strategypl</title>
<ellipse fill="lightgrey" stroke="black" cx="754.5" cy="-677" rx="86.3847" ry="18"/>
<text text-anchor="middle" x="754.5" y="-673.3" font-family="Times" font-size="14.00">Boundary_strategy.pl</text>
</g>
<!-- MARS_umbrella&#45;&gt;Boundary_strategypl -->
<g id="edge14" class="edge"><title>MARS_umbrella&#45;&gt;Boundary_strategypl</title>
<path fill="none" stroke="gray" stroke-dasharray="5,2" d="M754.5,-730.697C754.5,-722.983 754.5,-713.712 754.5,-705.112"/>
<polygon fill="gray" stroke="gray" points="758,-705.104 754.5,-695.104 751,-705.104 758,-705.104"/>
</g>
<!-- MARS_get_bd&#45;&gt;MARS_umbrella -->
<g id="edge11" class="edge"><title>MARS_get_bd&#45;&gt;MARS_umbrella</title>
<path fill="none" stroke="gray" stroke-dasharray="5,2" d="M754.5,-802.697C754.5,-794.983 754.5,-785.712 754.5,-777.112"/>
<polygon fill="gray" stroke="gray" points="758,-777.104 754.5,-767.104 751,-777.104 758,-777.104"/>
</g>
<!-- Get_bdtimespl -->
<g id="node12" class="node"><title>Get_bdtimespl</title>
<ellipse fill="lightgrey" stroke="black" cx="837.5" cy="-461" rx="65.7887" ry="18"/>
<text text-anchor="middle" x="837.5" y="-457.3" font-family="Times" font-size="14.00">Get_bdtimes.pl</text>
</g>
<!-- MARS_get_bd&#45;&gt;Get_bdtimespl -->
<g id="edge12" class="edge"><title>MARS_get_bd&#45;&gt;Get_bdtimespl</title>
<path fill="none" stroke="gray" stroke-dasharray="5,2" d="M805.452,-809.859C869.03,-793.895 969.5,-756.282 969.5,-678 969.5,-678 969.5,-678 969.5,-604 969.5,-548.845 915.417,-506.119 876.488,-482.508"/>
<polygon fill="gray" stroke="gray" points="877.848,-479.248 867.453,-477.202 874.303,-485.284 877.848,-479.248"/>
</g>
<!-- Get_bdtimespl&#45;&gt;MARS_prepare -->
<g id="edge15" class="edge"><title>Get_bdtimespl&#45;&gt;MARS_prepare</title>
<path fill="none" stroke="gray" stroke-dasharray="5,2" d="M837.5,-442.697C837.5,-434.983 837.5,-425.712 837.5,-417.112"/>
<polygon fill="gray" stroke="gray" points="841,-417.104 837.5,-407.104 834,-417.104 841,-417.104"/>
</g>
<!-- Boundary_strategypl&#45;&gt;MARS_prepare -->
<g id="edge13" class="edge"><title>Boundary_strategypl&#45;&gt;MARS_prepare</title>
<path fill="none" stroke="gray" stroke-dasharray="5,2" d="M786.924,-660.283C823.74,-640.477 882.107,-602.673 908.5,-551 930.349,-508.224 934.587,-485.654 912.5,-443 906.132,-430.702 895.451,-420.648 884.117,-412.731"/>
<polygon fill="gray" stroke="gray" points="885.683,-409.576 875.383,-407.091 881.886,-415.456 885.683,-409.576"/>
</g>
<!-- Boundary_strategy -->
<g id="node21" class="node"><title>Boundary_strategy</title>
<polygon fill="#eec900" stroke="black" points="753,-623 634,-623 634,-587 753,-587 753,-623"/>
<text text-anchor="middle" x="693.5" y="-601.3" font-family="Times,serif" font-weight="bold" font-size="14.00" fill="#268bd2">Boundary_strategy</text>
</g>
<!-- Boundary_strategypl&#45;&gt;Boundary_strategy -->
<g id="edge18" class="edge"><title>Boundary_strategypl&#45;&gt;Boundary_strategy</title>
<path fill="none" stroke="gray" stroke-dasharray="5,2" d="M739.734,-659.055C732.351,-650.583 723.275,-640.168 715.125,-630.815"/>
<polygon fill="gray" stroke="gray" points="717.763,-628.515 708.554,-623.275 712.485,-633.114 717.763,-628.515"/>
</g>
<!-- bdstratmode -->
<g id="node23" class="node"><title>bdstratmode</title>
<polygon fill="pink" stroke="black" points="899.5,-551 741.5,-551 741.5,-515 899.5,-515 899.5,-551"/>
<text text-anchor="middle" x="820.5" y="-529.3" font-family="Times,serif" font-weight="bold" font-size="14.00" fill="#268bd2">$LWRK/bdstrat_$MODE</text>
</g>
<!-- Boundary_strategypl&#45;&gt;bdstratmode -->
<g id="edge16" class="edge"><title>Boundary_strategypl&#45;&gt;bdstratmode</title>
<path fill="none" stroke="gray" stroke-dasharray="5,2" d="M762.461,-658.871C773.858,-634.35 794.922,-589.032 808.295,-560.259"/>
<polygon fill="gray" stroke="gray" points="811.47,-561.733 812.511,-551.189 805.122,-558.782 811.47,-561.733"/>
</g>
<!-- ECFS_getbd -->
<g id="node14" class="node"><title>ECFS_getbd</title>
<ellipse fill="lightgrey" stroke="black" cx="694.5" cy="-389" rx="55.7903" ry="18"/>
<text text-anchor="middle" x="694.5" y="-385.3" font-family="Times" font-size="14.00">ECFS_getbd</text>
</g>
<!-- ECFS_getbd&#45;&gt;Prefetch_boundaries -->
<g id="edge10" class="edge"><title>ECFS_getbd&#45;&gt;Prefetch_boundaries</title>
<path fill="none" stroke="gray" stroke-dasharray="5,2" d="M694.5,-370.697C694.5,-362.983 694.5,-353.712 694.5,-345.112"/>
<polygon fill="gray" stroke="gray" points="698,-345.104 694.5,-335.104 691,-345.104 698,-345.104"/>
</g>
<!-- harmonie_namelists -->
<g id="node15" class="node"><title>harmonie_namelists</title>
<ellipse fill="lightgrey" stroke="black" cx="678.5" cy="-965" rx="96.6831" ry="18"/>
<text text-anchor="middle" x="678.5" y="-961.3" font-family="Times" font-size="14.00">harmonie_namelists.pm</text>
</g>
<!-- Prep_ini_surfex -->
<g id="node16" class="node"><title>Prep_ini_surfex</title>
<polygon fill="#eec900" stroke="black" points="888.5,-983 793.653,-965 888.5,-947 983.347,-965 888.5,-983"/>
<text text-anchor="middle" x="888.5" y="-961.3" font-family="Times,serif" font-weight="bold" font-size="14.00" fill="#268bd2">Prep_ini_surfex</text>
</g>
<!-- MARS_prefetchFiles -->
<g id="node25" class="node"><title>MARS_prefetchFiles</title>
<path fill="pink" stroke="black" d="M629.5,-216.5C629.5,-216.5 741.5,-216.5 741.5,-216.5 747.5,-216.5 753.5,-222.5 753.5,-228.5 753.5,-228.5 753.5,-250.5 753.5,-250.5 753.5,-256.5 747.5,-262.5 741.5,-262.5 741.5,-262.5 629.5,-262.5 629.5,-262.5 623.5,-262.5 617.5,-256.5 617.5,-250.5 617.5,-250.5 617.5,-228.5 617.5,-228.5 617.5,-222.5 623.5,-216.5 629.5,-216.5"/>
<text text-anchor="middle" x="685.5" y="-247.3" font-family="Times,serif" font-weight="bold" font-size="14.00" fill="#268bd2">mars_prefetch_$DTG</text>
<polyline fill="none" stroke="black" points="617.5,-239.5 753.5,-239.5 "/>
<text text-anchor="middle" x="641.5" y="-224.3" font-family="Times,serif" font-weight="bold" font-size="14.00" fill="#268bd2">000</text>
<polyline fill="none" stroke="black" points="665.5,-216.5 665.5,-239.5 "/>
<text text-anchor="middle" x="685" y="-224.3" font-family="Times,serif" font-weight="bold" font-size="14.00" fill="#268bd2">...</text>
<polyline fill="none" stroke="black" points="704.5,-216.5 704.5,-239.5 "/>
<text text-anchor="middle" x="729" y="-224.3" font-family="Times,serif" font-weight="bold" font-size="14.00" fill="#268bd2">012</text>
</g>
<!-- Prefetch_boundaries&#45;&gt;MARS_prefetchFiles -->
<g id="edge27" class="edge"><title>Prefetch_boundaries&#45;&gt;MARS_prefetchFiles</title>
<path fill="none" stroke="black" d="M692.458,-298.868C691.541,-291.175 690.427,-281.835 689.363,-272.902"/>
<polygon fill="black" stroke="black" points="692.809,-272.242 688.15,-262.727 685.858,-273.071 692.809,-272.242"/>
</g>
<!-- bdstrategy -->
<g id="node24" class="node"><title>bdstrategy</title>
<polygon fill="pink" stroke="black" points="651,-551 508,-551 508,-515 651,-515 651,-551"/>
<text text-anchor="middle" x="579.5" y="-529.3" font-family="Times,serif" font-weight="bold" font-size="14.00" fill="#268bd2">$ARCHIVE/bdstrategy</text>
</g>
<!-- Boundary_strategy&#45;&gt;bdstrategy -->
<g id="edge19" class="edge"><title>Boundary_strategy&#45;&gt;bdstrategy</title>
<path fill="none" stroke="gray" stroke-dasharray="5,2" d="M665.612,-586.876C650.707,-577.724 632.171,-566.342 616.118,-556.485"/>
<polygon fill="gray" stroke="gray" points="617.848,-553.44 607.495,-551.19 614.185,-559.405 617.848,-553.44"/>
</g>
<!-- ExtractBD -->
<g id="node22" class="node"><title>ExtractBD</title>
<polygon fill="#eec900" stroke="black" points="551.5,-180 477.5,-180 477.5,-144 551.5,-144 551.5,-180"/>
<text text-anchor="middle" x="514.5" y="-158.3" font-family="Times,serif" font-weight="bold" font-size="14.00" fill="#268bd2">ExtractBD</text>
</g>
<!-- bdinput -->
<g id="node26" class="node"><title>bdinput</title>
<polygon fill="pink" stroke="black" points="551,-108 430,-108 430,-72 551,-72 551,-108"/>
<text text-anchor="middle" x="490.5" y="-86.3" font-family="Times,serif" font-weight="bold" font-size="14.00" fill="#268bd2">$WRK/bdinput_$1</text>
</g>
<!-- ExtractBD&#45;&gt;bdinput -->
<g id="edge21" class="edge"><title>ExtractBD&#45;&gt;bdinput</title>
<path fill="none" stroke="gray" stroke-dasharray="5,2" d="M508.567,-143.697C505.894,-135.898 502.674,-126.509 499.699,-117.829"/>
<polygon fill="gray" stroke="gray" points="502.918,-116.429 496.364,-108.104 496.297,-118.699 502.918,-116.429"/>
</g>
<!-- bdstratmode&#45;&gt;Get_bdtimespl -->
<g id="edge17" class="edge"><title>bdstratmode&#45;&gt;Get_bdtimespl</title>
<path fill="none" stroke="gray" stroke-dasharray="5,2" d="M824.702,-514.697C826.596,-506.898 828.877,-497.509 830.984,-488.829"/>
<polygon fill="gray" stroke="gray" points="834.387,-489.648 833.346,-479.104 827.585,-487.996 834.387,-489.648"/>
</g>
<!-- bdstrategy&#45;&gt;gl_bd -->
<g id="edge28" class="edge"><title>bdstrategy&#45;&gt;gl_bd</title>
<path fill="none" stroke="black" d="M579.5,-514.951C579.5,-488.292 579.5,-435.115 579.5,-390 579.5,-390 579.5,-390 579.5,-161 579.5,-120.458 581.324,-106.167 559.5,-72 551.11,-58.8644 538.273,-47.7071 525.937,-39.0675"/>
<polygon fill="black" stroke="black" points="527.806,-36.1071 517.538,-33.4951 523.936,-41.9401 527.806,-36.1071"/>
</g>
<!-- bdstrategy&#45;&gt;Get_bdtimespl -->
<g id="edge29" class="edge"><title>bdstrategy&#45;&gt;Get_bdtimespl</title>
<path fill="none" stroke="black" d="M642.284,-514.966C685.139,-503.338 741.369,-488.082 782.469,-476.931"/>
<polygon fill="black" stroke="black" points="783.577,-480.257 792.311,-474.26 781.744,-473.501 783.577,-480.257"/>
</g>
<!-- bdstrategy&#45;&gt;Boundary_strategypl -->
<g id="edge30" class="edge"><title>bdstrategy&#45;&gt;Boundary_strategypl</title>
<path fill="none" stroke="black" d="M584.433,-551.321C590.879,-571.098 603.957,-603.258 625.5,-623 643.697,-639.675 667.856,-651.474 690.344,-659.636"/>
<polygon fill="black" stroke="black" points="689.262,-662.965 699.857,-662.915 691.543,-656.347 689.262,-662.965"/>
</g>
<!-- bdstrategy&#45;&gt;Interpol_ec_sst -->
<g id="edge31" class="edge"><title>bdstrategy&#45;&gt;Interpol_ec_sst</title>
<path fill="none" stroke="black" d="M507.742,-521.672C448.359,-512.616 361.665,-498.224 277.065,-478.999"/>
<polygon fill="black" stroke="black" points="277.825,-475.583 267.295,-476.755 276.258,-482.405 277.825,-475.583"/>
</g>
<!-- bdstrategy&#45;&gt;ExtractBD -->
<g id="edge32" class="edge"><title>bdstrategy&#45;&gt;ExtractBD</title>
<path fill="none" stroke="black" d="M571.81,-514.907C560.706,-488.623 541.5,-436.447 541.5,-390 541.5,-390 541.5,-390 541.5,-316 541.5,-271.363 530.217,-220.5 522.239,-190.114"/>
<polygon fill="black" stroke="black" points="525.565,-189.005 519.578,-180.263 518.807,-190.83 525.565,-189.005"/>
</g>
<!-- Canari -->
<g id="node27" class="node"><title>Canari</title>
<polygon fill="pink" stroke="black" points="513.5,-479 459.5,-479 459.5,-443 513.5,-443 513.5,-479"/>
<text text-anchor="middle" x="486.5" y="-457.3" font-family="Times,serif" font-weight="bold" font-size="14.00" fill="#268bd2">Canari</text>
</g>
<!-- bdstrategy&#45;&gt;Canari -->
<g id="edge33" class="edge"><title>bdstrategy&#45;&gt;Canari</title>
<path fill="none" stroke="black" d="M556.511,-514.697C544.686,-505.796 530.108,-494.823 517.321,-485.199"/>
<polygon fill="black" stroke="black" points="519.319,-482.322 509.224,-479.104 515.109,-487.915 519.319,-482.322"/>
</g>
<!-- Dfi -->
<g id="node28" class="node"><title>Dfi</title>
<polygon fill="pink" stroke="black" points="661.5,-479 607.5,-479 607.5,-443 661.5,-443 661.5,-479"/>
<text text-anchor="middle" x="634.5" y="-457.3" font-family="Times,serif" font-weight="bold" font-size="14.00" fill="#268bd2">Dfi</text>
</g>
<!-- bdstrategy&#45;&gt;Dfi -->
<g id="edge34" class="edge"><title>bdstrategy&#45;&gt;Dfi</title>
<path fill="none" stroke="black" d="M593.096,-514.697C599.623,-506.389 607.568,-496.277 614.747,-487.141"/>
<polygon fill="black" stroke="black" points="617.635,-489.13 621.061,-479.104 612.131,-484.805 617.635,-489.13"/>
</g>
<!-- FirstGuess -->
<g id="node29" class="node"><title>FirstGuess</title>
<polygon fill="pink" stroke="black" points="753.5,-479 679.5,-479 679.5,-443 753.5,-443 753.5,-479"/>
<text text-anchor="middle" x="716.5" y="-457.3" font-family="Times,serif" font-weight="bold" font-size="14.00" fill="#268bd2">FirstGuess</text>
</g>
<!-- bdstrategy&#45;&gt;FirstGuess -->
<g id="edge35" class="edge"><title>bdstrategy&#45;&gt;FirstGuess</title>
<path fill="none" stroke="black" d="M613.014,-514.876C631.341,-505.512 654.236,-493.814 673.828,-483.803"/>
<polygon fill="black" stroke="black" points="675.545,-486.857 682.857,-479.19 672.36,-480.623 675.545,-486.857"/>
</g>
<!-- Forecast -->
<g id="node30" class="node"><title>Forecast</title>
<polygon fill="pink" stroke="black" points="347.5,-479 285.5,-479 285.5,-443 347.5,-443 347.5,-479"/>
<text text-anchor="middle" x="316.5" y="-457.3" font-family="Times,serif" font-weight="bold" font-size="14.00" fill="#268bd2">Forecast</text>
</g>
<!-- bdstrategy&#45;&gt;Forecast -->
<g id="edge36" class="edge"><title>bdstrategy&#45;&gt;Forecast</title>
<path fill="none" stroke="black" d="M507.845,-518.182C466.107,-509.388 412.459,-496.81 357.332,-479.013"/>
<polygon fill="black" stroke="black" points="358.344,-475.662 347.752,-475.871 356.163,-482.313 358.344,-475.662"/>
</g>
<!-- LBCn_one -->
<g id="node31" class="node"><title>LBCn_one</title>
<polygon fill="pink" stroke="black" points="441.5,-479 365.5,-479 365.5,-443 441.5,-443 441.5,-479"/>
<text text-anchor="middle" x="403.5" y="-457.3" font-family="Times,serif" font-weight="bold" font-size="14.00" fill="#268bd2">LBCn_one</text>
</g>
<!-- bdstrategy&#45;&gt;LBCn_one -->
<g id="edge37" class="edge"><title>bdstrategy&#45;&gt;LBCn_one</title>
<path fill="none" stroke="black" d="M536.446,-514.876C510.614,-504.602 477.72,-491.519 451.115,-480.938"/>
<polygon fill="black" stroke="black" points="452.208,-477.606 441.622,-477.162 449.621,-484.11 452.208,-477.606"/>
</g>
<!-- MARS_prefetchFiles&#45;&gt;ExtractBD -->
<g id="edge20" class="edge"><title>MARS_prefetchFiles&#45;&gt;ExtractBD</title>
<path fill="none" stroke="gray" stroke-dasharray="5,2" d="M635.58,-216.459C612.013,-206.054 584.057,-193.711 560.948,-183.508"/>
<polygon fill="gray" stroke="gray" points="562.258,-180.26 551.697,-179.423 559.431,-186.664 562.258,-180.26"/>
</g>
<!-- bdinput&#45;&gt;gl_bd -->
<g id="edge22" class="edge"><title>bdinput&#45;&gt;gl_bd</title>
<path fill="none" stroke="gray" stroke-dasharray="5,2" d="M490.5,-71.6966C490.5,-63.9827 490.5,-54.7125 490.5,-46.1124"/>
<polygon fill="gray" stroke="gray" points="494,-46.1043 490.5,-36.1043 487,-46.1044 494,-46.1043"/>
</g>
</g>
</svg>
