<?xml version="1.0" encoding="UTF-8" standalone="no"?>
<!DOCTYPE svg PUBLIC "-//W3C//DTD SVG 1.1//EN"
 "http://www.w3.org/Graphics/SVG/1.1/DTD/svg11.dtd">
<!-- Generated by graphviz version 2.38.0 (20140413.2041)
 -->
<!-- Title: Harmonie Pages: 1 -->
<svg width="2984pt" height="1342pt"
 viewBox="0.00 0.00 2984.00 1342.00" xmlns="http://www.w3.org/2000/svg" xmlns:xlink="http://www.w3.org/1999/xlink">
<g id="graph0" class="graph" transform="scale(1 1) rotate(0) translate(4 1338)">
<title>Harmonie</title>
<polygon fill="white" stroke="none" points="-4,4 -4,-1338 2980,-1338 2980,4 -4,4"/>
<text text-anchor="middle" x="1488" y="-1306" font-family="Times,serif" font-size="30.00">Data Assimilation in Harmonie&#45;Arome</text>
<g id="clust1" class="cluster"><title>cluster_legend</title>
<polygon fill="none" stroke="black" points="8,-1203 8,-1285 346,-1285 346,-1203 8,-1203"/>
<text text-anchor="middle" x="177" y="-1265" font-family="Times,serif" font-size="20.00">Directories</text>
</g>
<!-- WRKfile -->
<g id="node1" class="node"><title>WRKfile</title>
<g id="a_node1"><a xlink:title="$HM_DATA/$YYYY$MM$DD_$HH" target="_blank">
<ellipse fill="powderblue" stroke="black" cx="302" cy="-1229" rx="36.2938" ry="18"/>
<text text-anchor="middle" x="302" y="-1225.3" font-family="Times,serif" font-size="14.00">$WRK</text>
</a>
</g>
</g>
<!-- ARCHIVEfile -->
<g id="node2" class="node"><title>ARCHIVEfile</title>
<g id="a_node2"><a xlink:title="$HM_DATA/archive/$YYYY/$MM/$DD/$HH" target="_blank">
<ellipse fill="orange" stroke="black" cx="194" cy="-1229" rx="53.8905" ry="18"/>
<text text-anchor="middle" x="194" y="-1225.3" font-family="Times,serif" font-size="14.00">$ARCHIVE</text>
</a>
</g>
</g>
<!-- CLIMATEfile -->
<g id="node3" class="node"><title>CLIMATEfile</title>
<g id="a_node3"><a xlink:title="$HM_DATA/climate" target="_blank">
<ellipse fill="lightgreen" stroke="black" cx="69" cy="-1229" rx="52.7911" ry="18"/>
<text text-anchor="middle" x="69" y="-1225.3" font-family="Times,serif" font-size="14.00">$CLIMDIR</text>
</a>
</g>
</g>
<!-- Prepare_pgd -->
<g id="node4" class="node"><title>Prepare_pgd</title>
<polygon fill="#eec900" stroke="black" points="441.5,-1248 356.5,-1248 356.5,-1210 441.5,-1210 441.5,-1248"/>
<text text-anchor="start" x="364.5" y="-1232.8" font-family="Times,serif" font-size="14.00">Prepare_pgd</text>
<text text-anchor="middle" x="399" y="-1217.8" font-family="Times,serif" font-size="14.00">SBU: </text>
</g>
<!-- PGD_prelfa -->
<g id="node5" class="node"><title>PGD_prelfa</title>
<ellipse fill="lightgreen" stroke="black" cx="334" cy="-1155" rx="55.7903" ry="18"/>
<text text-anchor="middle" x="334" y="-1151.3" font-family="Times,serif" font-size="14.00">PGD_prel.fa</text>
</g>
<!-- Prepare_pgd&#45;&gt;PGD_prelfa -->
<g id="edge1" class="edge"><title>Prepare_pgd&#45;&gt;PGD_prelfa</title>
<path fill="none" stroke="black" d="M382.598,-1209.83C374.407,-1200.76 364.392,-1189.66 355.586,-1179.91"/>
<polygon fill="black" stroke="black" points="358.14,-1177.52 348.841,-1172.44 352.944,-1182.21 358.14,-1177.52"/>
</g>
<!-- PGD_prellfi -->
<g id="node6" class="node"><title>PGD_prellfi</title>
<ellipse fill="lightgreen" stroke="black" cx="464" cy="-1155" rx="56.59" ry="18"/>
<text text-anchor="middle" x="464" y="-1151.3" font-family="Times,serif" font-size="14.00">PGD_prel.lfi</text>
</g>
<!-- Prepare_pgd&#45;&gt;PGD_prellfi -->
<g id="edge2" class="edge"><title>Prepare_pgd&#45;&gt;PGD_prellfi</title>
<path fill="none" stroke="black" d="M415.402,-1209.83C423.593,-1200.76 433.608,-1189.66 442.414,-1179.91"/>
<polygon fill="black" stroke="black" points="445.056,-1182.21 449.159,-1172.44 439.86,-1177.52 445.056,-1182.21"/>
</g>
<!-- Prepare_ob -->
<g id="node7" class="node"><title>Prepare_ob</title>
<g id="a_node7"><a xlink:href="https://hirlam.org/trac/wiki/HarmonieSystemDocumentation/ObservationPreprocessing/ObservationData" xlink:title="Prepare_ob\lSBU: " target="_blank">
<polygon fill="#eec900" stroke="black" points="703,-1248 625,-1248 625,-1210 703,-1210 703,-1248"/>
<text text-anchor="start" x="633" y="-1232.8" font-family="Times,serif" font-size="14.00">Prepare_ob</text>
<text text-anchor="middle" x="664" y="-1217.8" font-family="Times,serif" font-size="14.00">SBU: </text>
</a>
</g>
</g>
<!-- obYYYYMMDD -->
<g id="node8" class="node"><title>obYYYYMMDD</title>
<ellipse fill="powderblue" stroke="black" cx="664" cy="-1155" rx="125.378" ry="18"/>
<text text-anchor="middle" x="664" y="-1151.3" font-family="Times,serif" font-size="14.00">observations/ob$YYYYMMDD</text>
</g>
<!-- Prepare_ob&#45;&gt;obYYYYMMDD -->
<g id="edge3" class="edge"><title>Prepare_ob&#45;&gt;obYYYYMMDD</title>
<path fill="none" stroke="black" d="M664,-1209.83C664,-1201.89 664,-1192.41 664,-1183.63"/>
<polygon fill="black" stroke="black" points="667.5,-1183.42 664,-1173.42 660.5,-1183.42 667.5,-1183.42"/>
</g>
<!-- Bator -->
<g id="node9" class="node"><title>Bator</title>
<g id="a_node9"><a xlink:href="https://hirlam.org/trac/wiki/HarmonieSystemDocumentation/ObservationPreprocessing/Bator" xlink:title="Bator\lSBU: 0.201622
" target="_blank">
<polygon fill="#eec900" stroke="black" points="975.5,-952 874.5,-952 874.5,-914 975.5,-914 975.5,-952"/>
<text text-anchor="start" x="882.5" y="-936.8" font-family="Times,serif" font-size="14.00">Bator</text>
<text text-anchor="middle" x="925" y="-921.8" font-family="Times,serif" font-size="14.00">SBU: 0.201622</text>
</a>
</g>
</g>
<!-- obYYYYMMDD&#45;&gt;Bator -->
<g id="edge4" class="edge"><title>obYYYYMMDD&#45;&gt;Bator</title>
<path fill="none" stroke="black" d="M658.657,-1136.89C649.55,-1103.99 635.26,-1031.43 671,-989 695.433,-959.991 797.319,-945.363 864.392,-938.739"/>
<polygon fill="black" stroke="black" points="864.808,-942.215 874.431,-937.781 864.143,-935.247 864.808,-942.215"/>
</g>
<!-- Oulan -->
<g id="node10" class="node"><title>Oulan</title>
<g id="a_node10"><a xlink:href="https://hirlam.org/trac/wiki/HarmonieSystemDocumentation/ObservationPreprocessing/Oulan" xlink:title="Oulan\lSBU: " target="_blank">
<polygon fill="#eec900" stroke="black" points="754,-1100 700,-1100 700,-1062 754,-1062 754,-1100"/>
<text text-anchor="start" x="708" y="-1084.8" font-family="Times,serif" font-size="14.00">Oulan</text>
<text text-anchor="middle" x="727" y="-1069.8" font-family="Times,serif" font-size="14.00">SBU: </text>
</a>
</g>
</g>
<!-- obYYYYMMDD&#45;&gt;Oulan -->
<g id="edge5" class="edge"><title>obYYYYMMDD&#45;&gt;Oulan</title>
<path fill="none" stroke="black" d="M678.93,-1136.94C686.492,-1128.3 695.834,-1117.62 704.266,-1107.98"/>
<polygon fill="black" stroke="black" points="707.125,-1110.03 711.076,-1100.2 701.857,-1105.42 707.125,-1110.03"/>
</g>
<!-- odb -->
<g id="node11" class="node"><title>odb</title>
<ellipse fill="powderblue" stroke="black" cx="1242" cy="-859" rx="27" ry="18"/>
<text text-anchor="middle" x="1242" y="-855.3" font-family="Times,serif" font-size="14.00">odb</text>
</g>
<!-- Bator&#45;&gt;odb -->
<g id="edge6" class="edge"><title>Bator&#45;&gt;odb</title>
<path fill="none" stroke="black" d="M975.58,-920.512C1040.25,-905.823 1150.57,-880.766 1206.8,-867.995"/>
<polygon fill="black" stroke="black" points="1207.67,-871.386 1216.65,-865.758 1206.12,-864.56 1207.67,-871.386"/>
</g>
<!-- odb_can_ori -->
<g id="node12" class="node"><title>odb_can_ori</title>
<ellipse fill="powderblue" stroke="black" cx="894" cy="-859" rx="54.6905" ry="18"/>
<text text-anchor="middle" x="894" y="-855.3" font-family="Times,serif" font-size="14.00">odb_can_ori</text>
</g>
<!-- Bator&#45;&gt;odb_can_ori -->
<g id="edge7" class="edge"><title>Bator&#45;&gt;odb_can_ori</title>
<path fill="none" stroke="black" d="M917.177,-913.831C913.595,-905.51 909.28,-895.488 905.349,-886.359"/>
<polygon fill="black" stroke="black" points="908.457,-884.727 901.288,-876.926 902.028,-887.495 908.457,-884.727"/>
</g>
<!-- OBSOUL -->
<g id="node15" class="node"><title>OBSOUL</title>
<ellipse fill="powderblue" stroke="black" cx="748" cy="-1007" rx="67.6881" ry="18"/>
<text text-anchor="middle" x="748" y="-1003.3" font-family="Times,serif" font-size="14.00">oulan/OBSOUL</text>
</g>
<!-- Oulan&#45;&gt;OBSOUL -->
<g id="edge10" class="edge"><title>Oulan&#45;&gt;OBSOUL</title>
<path fill="none" stroke="black" d="M732.299,-1061.83C734.665,-1053.72 737.502,-1043.99 740.11,-1035.05"/>
<polygon fill="black" stroke="black" points="743.48,-1036 742.92,-1025.42 736.76,-1034.04 743.48,-1036"/>
</g>
<!-- Screening -->
<g id="node13" class="node"><title>Screening</title>
<g id="a_node13"><a xlink:href="https://hirlam.org/trac/wiki/HarmonieSystemDocumentation/Screening" xlink:title="Screening\lSBU: 175.007996
" target="_blank">
<polygon fill="#eec900" stroke="black" points="1449.5,-804 1334.5,-804 1334.5,-766 1449.5,-766 1449.5,-804"/>
<text text-anchor="start" x="1342.5" y="-788.8" font-family="Times,serif" font-size="14.00">Screening</text>
<text text-anchor="middle" x="1392" y="-773.8" font-family="Times,serif" font-size="14.00">SBU: 175.007996</text>
</a>
</g>
</g>
<!-- odb&#45;&gt;Screening -->
<g id="edge8" class="edge"><title>odb&#45;&gt;Screening</title>
<path fill="none" stroke="black" d="M1263.49,-847.684C1284.74,-837.483 1317.96,-821.541 1345.29,-808.42"/>
<polygon fill="black" stroke="black" points="1346.81,-811.573 1354.31,-804.09 1343.78,-805.262 1346.81,-811.573"/>
</g>
<!-- Canari -->
<g id="node14" class="node"><title>Canari</title>
<g id="a_node14"><a xlink:href="https://hirlam.org/trac/wiki/HarmonieSystemDocumentation/Analysis/CANARI" xlink:title="Canari\lSBU: 27.904501
" target="_blank">
<polygon fill="#eec900" stroke="black" points="1170,-273 1062,-273 1062,-235 1170,-235 1170,-273"/>
<text text-anchor="start" x="1070" y="-257.8" font-family="Times,serif" font-size="14.00">Canari</text>
<text text-anchor="middle" x="1116" y="-242.8" font-family="Times,serif" font-size="14.00">SBU: 27.904501</text>
</a>
</g>
</g>
<!-- odb_can_ori&#45;&gt;Canari -->
<g id="edge9" class="edge"><title>odb_can_ori&#45;&gt;Canari</title>
<path fill="none" stroke="black" d="M846.413,-850.04C811.444,-841.15 770,-822.843 770,-786 770,-786 770,-786 770,-327 770,-270.054 951.915,-257.835 1051.93,-255.421"/>
<polygon fill="black" stroke="black" points="1052.02,-258.92 1061.94,-255.206 1051.86,-251.922 1052.02,-258.92"/>
</g>
<!-- VarBC -->
<g id="node21" class="node"><title>VarBC</title>
<ellipse fill="powderblue" stroke="black" cx="1564" cy="-711" rx="56.59" ry="18"/>
<text text-anchor="middle" x="1564" y="-707.3" font-family="Times,serif" font-size="14.00">VarBC.cycle</text>
</g>
<!-- Screening&#45;&gt;VarBC -->
<g id="edge33" class="edge"><title>Screening&#45;&gt;VarBC</title>
<path fill="none" stroke="black" d="M1429.45,-765.831C1455.58,-754.428 1490.5,-739.832 1518.27,-728.716"/>
<polygon fill="black" stroke="black" points="1519.76,-731.887 1527.76,-724.94 1517.18,-725.382 1519.76,-731.887"/>
</g>
<!-- odb_ccma -->
<g id="node35" class="node"><title>odb_ccma</title>
<ellipse fill="powderblue" stroke="black" cx="1442" cy="-711" rx="47.3916" ry="18"/>
<text text-anchor="middle" x="1442" y="-707.3" font-family="Times,serif" font-size="14.00">odb_ccma</text>
</g>
<!-- Screening&#45;&gt;odb_ccma -->
<g id="edge34" class="edge"><title>Screening&#45;&gt;odb_ccma</title>
<path fill="none" stroke="black" d="M1404.62,-765.831C1410.64,-757.156 1417.95,-746.632 1424.5,-737.199"/>
<polygon fill="black" stroke="black" points="1427.42,-739.136 1430.25,-728.926 1421.67,-735.144 1427.42,-739.136"/>
</g>
<!-- odbvar -->
<g id="node36" class="node"><title>odbvar</title>
<ellipse fill="powderblue" stroke="black" cx="1304" cy="-711" rx="35.194" ry="18"/>
<text text-anchor="middle" x="1304" y="-707.3" font-family="Times,serif" font-size="14.00">odbvar</text>
</g>
<!-- Screening&#45;&gt;odbvar -->
<g id="edge35" class="edge"><title>Screening&#45;&gt;odbvar</title>
<path fill="none" stroke="black" d="M1369.79,-765.831C1357.6,-755.853 1342.41,-743.429 1329.71,-733.032"/>
<polygon fill="black" stroke="black" points="1331.72,-730.161 1321.77,-726.538 1327.29,-735.579 1331.72,-730.161"/>
</g>
<!-- ICMSHANALp0000sfx -->
<g id="node27" class="node"><title>ICMSHANALp0000sfx</title>
<ellipse fill="orange" stroke="black" cx="1115" cy="-180" rx="99.3824" ry="18"/>
<text text-anchor="middle" x="1115" y="-176.3" font-family="Times,serif" font-size="14.00">ICMSHANAL+0000.sfx</text>
</g>
<!-- Canari&#45;&gt;ICMSHANALp0000sfx -->
<g id="edge25" class="edge"><title>Canari&#45;&gt;ICMSHANALp0000sfx</title>
<path fill="none" stroke="black" d="M1115.75,-234.831C1115.64,-226.894 1115.51,-217.409 1115.38,-208.628"/>
<polygon fill="black" stroke="black" points="1118.88,-208.368 1115.24,-198.418 1111.88,-208.465 1118.88,-208.368"/>
</g>
<!-- ICMSHANALp0000 -->
<g id="node28" class="node"><title>ICMSHANALp0000</title>
<ellipse fill="orange" stroke="black" cx="1472" cy="-180" rx="86.3847" ry="18"/>
<text text-anchor="middle" x="1472" y="-176.3" font-family="Times,serif" font-size="14.00">ICMSHANAL+0000</text>
</g>
<!-- Canari&#45;&gt;ICMSHANALp0000 -->
<g id="edge26" class="edge"><title>Canari&#45;&gt;ICMSHANALp0000</title>
<path fill="none" stroke="black" d="M1170.07,-242.065C1232.14,-229.511 1334.13,-208.884 1402.16,-195.124"/>
<polygon fill="black" stroke="black" points="1403.25,-198.475 1412.36,-193.062 1401.87,-191.614 1403.25,-198.475"/>
</g>
<!-- odb_can_merge -->
<g id="node29" class="node"><title>odb_can_merge</title>
<ellipse fill="powderblue" stroke="black" cx="1300" cy="-180" rx="67.6881" ry="18"/>
<text text-anchor="middle" x="1300" y="-176.3" font-family="Times,serif" font-size="14.00">odb_can_merge</text>
</g>
<!-- Canari&#45;&gt;odb_can_merge -->
<g id="edge27" class="edge"><title>Canari&#45;&gt;odb_can_merge</title>
<path fill="none" stroke="black" d="M1162.43,-234.831C1190.43,-223.875 1225.96,-209.972 1253.9,-199.039"/>
<polygon fill="black" stroke="black" points="1255.4,-202.209 1263.44,-195.306 1252.85,-195.69 1255.4,-202.209"/>
</g>
<!-- odb_can -->
<g id="node30" class="node"><title>odb_can</title>
<ellipse fill="powderblue" stroke="black" cx="957" cy="-180" rx="40.0939" ry="18"/>
<text text-anchor="middle" x="957" y="-176.3" font-family="Times,serif" font-size="14.00">odb_can</text>
</g>
<!-- Canari&#45;&gt;odb_can -->
<g id="edge28" class="edge"><title>Canari&#45;&gt;odb_can</title>
<path fill="none" stroke="black" d="M1075.88,-234.831C1050.7,-223.43 1018.47,-208.837 993.928,-197.722"/>
<polygon fill="black" stroke="black" points="995.147,-194.432 984.594,-193.495 992.259,-200.809 995.147,-194.432"/>
</g>
<!-- OBSOUL&#45;&gt;Bator -->
<g id="edge11" class="edge"><title>OBSOUL&#45;&gt;Bator</title>
<path fill="none" stroke="black" d="M783.393,-991.603C808.5,-981.39 842.656,-967.496 871.132,-955.912"/>
<polygon fill="black" stroke="black" points="872.606,-959.091 880.551,-952.081 869.969,-952.607 872.606,-959.091"/>
</g>
<!-- FirstGuess -->
<g id="node16" class="node"><title>FirstGuess</title>
<polygon fill="#eec900" stroke="black" points="1169.5,-656 1068.5,-656 1068.5,-618 1169.5,-618 1169.5,-656"/>
<text text-anchor="start" x="1076.5" y="-640.8" font-family="Times,serif" font-size="14.00">FirstGuess</text>
<text text-anchor="middle" x="1119" y="-625.8" font-family="Times,serif" font-size="14.00">SBU: 0.015682</text>
</g>
<!-- very_first_guess -->
<g id="node17" class="node"><title>very_first_guess</title>
<ellipse fill="powderblue" stroke="black" cx="1270" cy="-563" rx="68.7879" ry="18"/>
<text text-anchor="middle" x="1270" y="-559.3" font-family="Times,serif" font-size="14.00">very_first_guess</text>
</g>
<!-- FirstGuess&#45;&gt;very_first_guess -->
<g id="edge12" class="edge"><title>FirstGuess&#45;&gt;very_first_guess</title>
<path fill="none" stroke="black" d="M1157.1,-617.831C1178.97,-607.406 1206.43,-594.312 1228.79,-583.648"/>
<polygon fill="black" stroke="black" points="1230.51,-586.705 1238.03,-579.242 1227.5,-580.387 1230.51,-586.705"/>
</g>
<!-- first_guess_sfx -->
<g id="node18" class="node"><title>first_guess_sfx</title>
<ellipse fill="powderblue" stroke="black" cx="1119" cy="-563" rx="63.8893" ry="18"/>
<text text-anchor="middle" x="1119" y="-559.3" font-family="Times,serif" font-size="14.00">first_guess_sfx</text>
</g>
<!-- FirstGuess&#45;&gt;first_guess_sfx -->
<g id="edge13" class="edge"><title>FirstGuess&#45;&gt;first_guess_sfx</title>
<path fill="none" stroke="black" d="M1119,-617.831C1119,-609.894 1119,-600.409 1119,-591.628"/>
<polygon fill="black" stroke="black" points="1122.5,-591.418 1119,-581.418 1115.5,-591.418 1122.5,-591.418"/>
</g>
<!-- Blend -->
<g id="node19" class="node"><title>Blend</title>
<polygon fill="#eec900" stroke="black" points="1521.5,-508 1420.5,-508 1420.5,-470 1521.5,-470 1521.5,-508"/>
<text text-anchor="start" x="1428.5" y="-492.8" font-family="Times,serif" font-size="14.00">Blend</text>
<text text-anchor="middle" x="1471" y="-477.8" font-family="Times,serif" font-size="14.00">SBU: 0.076168</text>
</g>
<!-- very_first_guess&#45;&gt;Blend -->
<g id="edge14" class="edge"><title>very_first_guess&#45;&gt;Blend</title>
<path fill="none" stroke="black" d="M1308.75,-548.118C1337.72,-537.741 1377.87,-523.361 1410.97,-511.502"/>
<polygon fill="black" stroke="black" points="1412.32,-514.737 1420.55,-508.07 1409.96,-508.147 1412.32,-514.737"/>
</g>
<!-- first_guess_sfx&#45;&gt;Canari -->
<g id="edge15" class="edge"><title>first_guess_sfx&#45;&gt;Canari</title>
<path fill="none" stroke="black" d="M1118.26,-544.838C1117.69,-530.253 1117,-508.757 1117,-490 1117,-490 1117,-490 1117,-327 1117,-312.643 1116.8,-296.678 1116.58,-283.436"/>
<polygon fill="black" stroke="black" points="1120.07,-282.984 1116.39,-273.049 1113.07,-283.11 1120.07,-282.984"/>
</g>
<!-- ANAB1999p0000 -->
<g id="node38" class="node"><title>ANAB1999p0000</title>
<ellipse fill="orange" stroke="black" cx="1471" cy="-415" rx="76.0865" ry="18"/>
<text text-anchor="middle" x="1471" y="-411.3" font-family="Times,serif" font-size="14.00">ANAB1999+0000</text>
</g>
<!-- Blend&#45;&gt;ANAB1999p0000 -->
<g id="edge41" class="edge"><title>Blend&#45;&gt;ANAB1999p0000</title>
<path fill="none" stroke="black" d="M1471,-469.831C1471,-461.894 1471,-452.409 1471,-443.628"/>
<polygon fill="black" stroke="black" points="1474.5,-443.418 1471,-433.418 1467.5,-443.418 1474.5,-443.418"/>
</g>
<!-- Fetch_assim_data -->
<g id="node20" class="node"><title>Fetch_assim_data</title>
<polygon fill="#eec900" stroke="black" points="1749,-804 1635,-804 1635,-766 1749,-766 1749,-804"/>
<text text-anchor="start" x="1643" y="-788.8" font-family="Times,serif" font-size="14.00">Fetch_assim_data</text>
<text text-anchor="middle" x="1692" y="-773.8" font-family="Times,serif" font-size="14.00">SBU: </text>
</g>
<!-- Fetch_assim_data&#45;&gt;VarBC -->
<g id="edge16" class="edge"><title>Fetch_assim_data&#45;&gt;VarBC</title>
<path fill="none" stroke="black" d="M1659.7,-765.831C1641.37,-755.521 1618.4,-742.599 1599.56,-732.001"/>
<polygon fill="black" stroke="black" points="1601.11,-728.858 1590.68,-727.006 1597.68,-734.959 1601.11,-728.858"/>
</g>
<!-- stabal96cv -->
<g id="node22" class="node"><title>stabal96cv</title>
<g id="a_node22"><a xlink:href="https://hirlam.org/trac/wiki/HarmonieSystemDocumentation/Structurefunctions_ensys" xlink:title="stabal96.cv" target="_blank">
<ellipse fill="lightsalmon" stroke="black" cx="1814" cy="-711" rx="50.8918" ry="18"/>
<text text-anchor="middle" x="1814" y="-707.3" font-family="Times,serif" font-size="14.00">stabal96.cv</text>
</a>
</g>
</g>
<!-- Fetch_assim_data&#45;&gt;stabal96cv -->
<g id="edge17" class="edge"><title>Fetch_assim_data&#45;&gt;stabal96cv</title>
<path fill="none" stroke="black" d="M1722.79,-765.831C1740.22,-755.544 1762.05,-742.657 1779.99,-732.071"/>
<polygon fill="black" stroke="black" points="1782.14,-734.868 1788.97,-726.771 1778.58,-728.84 1782.14,-734.868"/>
</g>
<!-- stabal96bal -->
<g id="node23" class="node"><title>stabal96bal</title>
<g id="a_node23"><a xlink:href="https://hirlam.org/trac/wiki/HarmonieSystemDocumentation/Structurefunctions_ensys" xlink:title="stabal96.bal" target="_blank">
<ellipse fill="lightsalmon" stroke="black" cx="1692" cy="-711" rx="53.0913" ry="18"/>
<text text-anchor="middle" x="1692" y="-707.3" font-family="Times,serif" font-size="14.00">stabal96.bal</text>
</a>
</g>
</g>
<!-- Fetch_assim_data&#45;&gt;stabal96bal -->
<g id="edge18" class="edge"><title>Fetch_assim_data&#45;&gt;stabal96bal</title>
<path fill="none" stroke="black" d="M1692,-765.831C1692,-757.894 1692,-748.409 1692,-739.628"/>
<polygon fill="black" stroke="black" points="1695.5,-739.418 1692,-729.418 1688.5,-739.418 1695.5,-739.418"/>
</g>
<!-- VarBC&#45;&gt;Screening -->
<g id="edge19" class="edge"><title>VarBC&#45;&gt;Screening</title>
<path fill="none" stroke="black" d="M1534.82,-726.538C1511.81,-736.718 1479.11,-750.504 1450.78,-762.021"/>
<polygon fill="black" stroke="black" points="1449.31,-758.838 1441.36,-765.831 1451.94,-765.327 1449.31,-758.838"/>
</g>
<!-- Minim -->
<g id="node24" class="node"><title>Minim</title>
<g id="a_node24"><a xlink:href="http://www.umr-cnrm.fr/gmapdoc/IMG/pdf/ykminim45.pdf" xlink:title="Minim\lSBU: 107.262966
" target="_blank">
<polygon fill="#eec900" stroke="black" points="1632.5,-656 1517.5,-656 1517.5,-618 1632.5,-618 1632.5,-656"/>
<text text-anchor="start" x="1525.5" y="-640.8" font-family="Times,serif" font-size="14.00">Minim</text>
<text text-anchor="middle" x="1575" y="-625.8" font-family="Times,serif" font-size="14.00">SBU: 107.262966</text>
</a>
</g>
</g>
<!-- VarBC&#45;&gt;Minim -->
<g id="edge20" class="edge"><title>VarBC&#45;&gt;Minim</title>
<path fill="none" stroke="black" d="M1560.77,-692.937C1561.14,-684.9 1562.39,-675.103 1564.12,-666.019"/>
<polygon fill="black" stroke="black" points="1567.55,-666.716 1566.26,-656.199 1560.71,-665.222 1567.55,-666.716"/>
</g>
<!-- stabal96cv&#45;&gt;Minim -->
<g id="edge21" class="edge"><title>stabal96cv&#45;&gt;Minim</title>
<path fill="none" stroke="black" d="M1776.66,-698.75C1740.77,-687.94 1685.73,-671.358 1642.21,-658.248"/>
<polygon fill="black" stroke="black" points="1643.14,-654.871 1632.55,-655.337 1641.12,-661.573 1643.14,-654.871"/>
</g>
<!-- stabal96bal&#45;&gt;Minim -->
<g id="edge22" class="edge"><title>stabal96bal&#45;&gt;Minim</title>
<path fill="none" stroke="black" d="M1667.47,-694.906C1651.84,-685.285 1631.25,-672.615 1613.47,-661.672"/>
<polygon fill="black" stroke="black" points="1614.82,-658.393 1604.47,-656.133 1611.15,-664.355 1614.82,-658.393"/>
</g>
<!-- Minim&#45;&gt;VarBC -->
<g id="edge37" class="edge"><title>Minim&#45;&gt;VarBC</title>
<path fill="none" stroke="black" d="M1578.17,-656.199C1577.72,-664.307 1576.44,-674.024 1574.69,-682.956"/>
<polygon fill="black" stroke="black" points="1571.23,-682.413 1572.45,-692.937 1578.06,-683.949 1571.23,-682.413"/>
</g>
<!-- MXMIN1999p0000 -->
<g id="node37" class="node"><title>MXMIN1999p0000</title>
<ellipse fill="orange" stroke="black" cx="1686" cy="-563" rx="83.3857" ry="18"/>
<text text-anchor="middle" x="1686" y="-559.3" font-family="Times,serif" font-size="14.00">MXMIN1999+0000</text>
</g>
<!-- Minim&#45;&gt;MXMIN1999p0000 -->
<g id="edge38" class="edge"><title>Minim&#45;&gt;MXMIN1999p0000</title>
<path fill="none" stroke="black" d="M1603.01,-617.831C1618.07,-608.06 1636.75,-595.943 1652.57,-585.681"/>
<polygon fill="black" stroke="black" points="1654.54,-588.576 1661.03,-580.197 1650.73,-582.703 1654.54,-588.576"/>
</g>
<!-- Interpol_ec_sst -->
<g id="node25" class="node"><title>Interpol_ec_sst</title>
<polygon fill="#eec900" stroke="black" points="999.5,-656 898.5,-656 898.5,-618 999.5,-618 999.5,-656"/>
<text text-anchor="start" x="906.5" y="-640.8" font-family="Times,serif" font-size="14.00">Interpol_ec_sst</text>
<text text-anchor="middle" x="949" y="-625.8" font-family="Times,serif" font-size="14.00">SBU: 0.029123</text>
</g>
<!-- ECMWF_CANARI_SST_SIC -->
<g id="node26" class="node"><title>ECMWF_CANARI_SST_SIC</title>
<ellipse fill="powderblue" stroke="black" cx="918" cy="-563" rx="119.679" ry="18"/>
<text text-anchor="middle" x="918" y="-559.3" font-family="Times,serif" font-size="14.00">ECMWF_CANARI_SST_SIC</text>
</g>
<!-- Interpol_ec_sst&#45;&gt;ECMWF_CANARI_SST_SIC -->
<g id="edge23" class="edge"><title>Interpol_ec_sst&#45;&gt;ECMWF_CANARI_SST_SIC</title>
<path fill="none" stroke="black" d="M941.177,-617.831C937.647,-609.632 933.406,-599.782 929.523,-590.762"/>
<polygon fill="black" stroke="black" points="932.669,-589.218 925.499,-581.418 926.239,-591.987 932.669,-589.218"/>
</g>
<!-- ECMWF_CANARI_SST_SIC&#45;&gt;Canari -->
<g id="edge24" class="edge"><title>ECMWF_CANARI_SST_SIC&#45;&gt;Canari</title>
<path fill="none" stroke="black" d="M955.654,-545.707C976.807,-533.757 999,-515.212 999,-490 999,-490 999,-490 999,-327 999,-298.304 1024.84,-280.678 1052.24,-270.055"/>
<polygon fill="black" stroke="black" points="1053.71,-273.244 1061.95,-266.582 1051.36,-266.652 1053.71,-273.244"/>
</g>
<!-- fc_start_sfx -->
<g id="node31" class="node"><title>fc_start_sfx</title>
<ellipse fill="powderblue" stroke="black" cx="1240" cy="-93" rx="51.9908" ry="18"/>
<text text-anchor="middle" x="1240" y="-89.3" font-family="Times,serif" font-size="14.00">fc_start_sfx</text>
</g>
<!-- ICMSHANALp0000sfx&#45;&gt;fc_start_sfx -->
<g id="edge29" class="edge"><title>ICMSHANALp0000sfx&#45;&gt;fc_start_sfx</title>
<path fill="none" stroke="black" stroke-dasharray="5,2" d="M1139.4,-162.409C1159.26,-148.906 1187.41,-129.76 1208.89,-115.156"/>
<polygon fill="black" stroke="black" points="1211.05,-117.922 1217.35,-109.404 1207.11,-112.133 1211.05,-117.922"/>
<text text-anchor="middle" x="1225" y="-132.8" font-family="Times,serif" font-size="14.00">Link in Canari</text>
</g>
<!-- fc_start -->
<g id="node32" class="node"><title>fc_start</title>
<ellipse fill="powderblue" stroke="black" cx="1545" cy="-93" rx="37.0935" ry="18"/>
<text text-anchor="middle" x="1545" y="-89.3" font-family="Times,serif" font-size="14.00">fc_start</text>
</g>
<!-- ICMSHANALp0000&#45;&gt;fc_start -->
<g id="edge30" class="edge"><title>ICMSHANALp0000&#45;&gt;fc_start</title>
<path fill="none" stroke="black" stroke-dasharray="5,2" d="M1479.12,-161.668C1483.83,-151.486 1490.66,-138.745 1499,-129 1503.65,-123.57 1509.27,-118.452 1514.96,-113.893"/>
<polygon fill="black" stroke="black" points="1517.37,-116.458 1523.25,-107.643 1513.16,-110.869 1517.37,-116.458"/>
<text text-anchor="middle" x="1539" y="-132.8" font-family="Times,serif" font-size="14.00">Link in Canari</text>
</g>
<!-- first_guess -->
<g id="node33" class="node"><title>first_guess</title>
<ellipse fill="powderblue" stroke="black" cx="1471" cy="-328" rx="48.9926" ry="18"/>
<text text-anchor="middle" x="1471" y="-324.3" font-family="Times,serif" font-size="14.00">first_guess</text>
</g>
<!-- ICMSHANALp0000&#45;&gt;first_guess -->
<g id="edge31" class="edge"><title>ICMSHANALp0000&#45;&gt;first_guess</title>
<path fill="none" stroke="black" stroke-dasharray="5,2" d="M1471.88,-198.378C1471.71,-223.498 1471.39,-270.19 1471.19,-299.872"/>
<polygon fill="black" stroke="black" points="1467.69,-299.942 1471.12,-309.966 1474.69,-299.99 1467.69,-299.942"/>
<text text-anchor="middle" x="1511" y="-250.3" font-family="Times,serif" font-size="14.00">Link in Canari</text>
</g>
<!-- CANARI -->
<g id="node34" class="node"><title>CANARI</title>
<ellipse fill="powderblue" stroke="black" cx="1395" cy="-93" rx="44.393" ry="18"/>
<text text-anchor="middle" x="1395" y="-89.3" font-family="Times,serif" font-size="14.00">CANARI</text>
</g>
<!-- ICMSHANALp0000&#45;&gt;CANARI -->
<g id="edge32" class="edge"><title>ICMSHANALp0000&#45;&gt;CANARI</title>
<path fill="none" stroke="black" stroke-dasharray="5,2" d="M1429.82,-164.217C1420.43,-159.131 1411.38,-152.505 1405,-144 1400.13,-137.5 1397.46,-129.233 1396.05,-121.303"/>
<polygon fill="black" stroke="black" points="1399.51,-120.755 1394.83,-111.248 1392.56,-121.596 1399.51,-120.755"/>
<text text-anchor="middle" x="1445" y="-132.8" font-family="Times,serif" font-size="14.00">Link in Canari</text>
</g>
<!-- Forecast -->
<g id="node39" class="node"><title>Forecast</title>
<g id="a_node39"><a xlink:href="https://hirlam.org/trac/wiki/HarmonieSystemDocumentation/Forecast" xlink:title="Forecast\lSBU: 985.690200
" target="_blank">
<polygon fill="#eec900" stroke="black" points="1484.5,-38 1369.5,-38 1369.5,-0 1484.5,-0 1484.5,-38"/>
<text text-anchor="start" x="1377.5" y="-22.8" font-family="Times,serif" font-size="14.00">Forecast</text>
<text text-anchor="middle" x="1427" y="-7.8" font-family="Times,serif" font-size="14.00">SBU: 985.690200</text>
</a>
</g>
</g>
<!-- fc_start_sfx&#45;&gt;Forecast -->
<g id="edge51" class="edge"><title>fc_start_sfx&#45;&gt;Forecast</title>
<path fill="none" stroke="black" d="M1273.43,-79.1278C1300.38,-68.754 1338.86,-53.9369 1370.56,-41.7308"/>
<polygon fill="black" stroke="black" points="1372.09,-44.8938 1380.16,-38.0344 1369.57,-38.3613 1372.09,-44.8938"/>
</g>
<!-- fc_start&#45;&gt;Forecast -->
<g id="edge47" class="edge"><title>fc_start&#45;&gt;Forecast</title>
<path fill="none" stroke="black" d="M1522.81,-78.4574C1506.67,-68.6108 1484.41,-55.0322 1465.42,-43.4401"/>
<polygon fill="black" stroke="black" points="1467.03,-40.3257 1456.67,-38.1047 1463.39,-46.3012 1467.03,-40.3257"/>
</g>
<!-- first_guess&#45;&gt;Screening -->
<g id="edge49" class="edge"><title>first_guess&#45;&gt;Screening</title>
<path fill="none" stroke="black" d="M1436.37,-340.878C1406.12,-353.714 1367,-377.389 1367,-414 1367,-712 1367,-712 1367,-712 1367,-727.289 1372.09,-743.445 1377.68,-756.57"/>
<polygon fill="black" stroke="black" points="1374.63,-758.315 1381.98,-765.951 1381,-755.402 1374.63,-758.315"/>
</g>
<!-- first_guess&#45;&gt;Canari -->
<g id="edge48" class="edge"><title>first_guess&#45;&gt;Canari</title>
<path fill="none" stroke="black" d="M1429.23,-318.529C1367.7,-306.05 1252.2,-282.623 1179.95,-267.97"/>
<polygon fill="black" stroke="black" points="1180.55,-264.52 1170.05,-265.963 1179.16,-271.38 1180.55,-264.52"/>
</g>
<!-- first_guess&#45;&gt;Minim -->
<g id="edge50" class="edge"><title>first_guess&#45;&gt;Minim</title>
<path fill="none" stroke="black" d="M1510.79,-338.607C1525.25,-343.918 1540.58,-351.968 1551,-364 1577.26,-394.32 1575,-410.889 1575,-451 1575,-564 1575,-564 1575,-564 1575,-578.355 1575,-594.321 1575,-607.563"/>
<polygon fill="black" stroke="black" points="1571.5,-607.95 1575,-617.95 1578.5,-607.95 1571.5,-607.95"/>
</g>
<!-- odb_ccma&#45;&gt;Minim -->
<g id="edge36" class="edge"><title>odb_ccma&#45;&gt;Minim</title>
<path fill="none" stroke="black" d="M1468.28,-695.775C1486.69,-685.806 1511.7,-672.269 1532.88,-660.804"/>
<polygon fill="black" stroke="black" points="1534.56,-663.872 1541.69,-656.034 1531.23,-657.716 1534.56,-663.872"/>
</g>
<!-- MXMIN1999p0000&#45;&gt;Blend -->
<g id="edge39" class="edge"><title>MXMIN1999p0000&#45;&gt;Blend</title>
<path fill="none" stroke="black" d="M1642.75,-547.516C1610.81,-536.819 1566.91,-522.117 1531.49,-510.255"/>
<polygon fill="black" stroke="black" points="1532.33,-506.848 1521.74,-506.991 1530.11,-513.485 1532.33,-506.848"/>
</g>
<!-- MXMIN1999p0000&#45;&gt;fc_start -->
<g id="edge40" class="edge"><title>MXMIN1999p0000&#45;&gt;fc_start</title>
<path fill="none" stroke="black" stroke-dasharray="5,2" d="M1690.1,-544.946C1693.22,-530.427 1697,-508.968 1697,-490 1697,-490 1697,-490 1697,-179 1697,-129.773 1635.52,-108.78 1590.76,-100.02"/>
<polygon fill="black" stroke="black" points="1591.1,-96.5259 1580.64,-98.1883 1589.85,-103.414 1591.1,-96.5259"/>
<text text-anchor="middle" x="1738" y="-324.3" font-family="Times,serif" font-size="14.00">Link in Minim</text>
</g>
<!-- ANAB1999p0000&#45;&gt;fc_start -->
<g id="edge42" class="edge"><title>ANAB1999p0000&#45;&gt;fc_start</title>
<path fill="none" stroke="black" stroke-dasharray="5,2" d="M1519.92,-401.028C1553.86,-388.729 1593,-366.431 1593,-329 1593,-329 1593,-329 1593,-179 1593,-155.923 1590.51,-149.004 1579,-129 1576.49,-124.64 1573.32,-120.419 1569.92,-116.509"/>
<polygon fill="black" stroke="black" points="1572.2,-113.824 1562.78,-108.97 1567.12,-118.637 1572.2,-113.824"/>
<text text-anchor="middle" x="1631" y="-250.3" font-family="Times,serif" font-size="14.00">Link in Blend</text>
</g>
<!-- ANAB1999p0000&#45;&gt;first_guess -->
<g id="edge43" class="edge"><title>ANAB1999p0000&#45;&gt;first_guess</title>
<path fill="none" stroke="black" stroke-dasharray="5,2" d="M1471,-396.799C1471,-385.163 1471,-369.548 1471,-356.237"/>
<polygon fill="black" stroke="black" points="1474.5,-356.175 1471,-346.175 1467.5,-356.175 1474.5,-356.175"/>
<text text-anchor="middle" x="1509" y="-367.8" font-family="Times,serif" font-size="14.00">Link in Blend</text>
</g>
<!-- Boundary_strategy -->
<g id="node40" class="node"><title>Boundary_strategy</title>
<polygon fill="#eec900" stroke="black" points="1065.5,-803 946.5,-803 946.5,-767 1065.5,-767 1065.5,-803"/>
<text text-anchor="middle" x="1006" y="-781.3" font-family="Times,serif" font-size="14.00">Boundary_strategy</text>
</g>
<!-- bdstrategy -->
<g id="node41" class="node"><title>bdstrategy</title>
<ellipse fill="orange" stroke="black" cx="1006" cy="-711" rx="47.3916" ry="18"/>
<text text-anchor="middle" x="1006" y="-707.3" font-family="Times,serif" font-size="14.00">bdstrategy</text>
</g>
<!-- Boundary_strategy&#45;&gt;bdstrategy -->
<g id="edge44" class="edge"><title>Boundary_strategy&#45;&gt;bdstrategy</title>
<path fill="none" stroke="black" d="M1006,-766.937C1006,-758.807 1006,-748.876 1006,-739.705"/>
<polygon fill="black" stroke="black" points="1009.5,-739.441 1006,-729.441 1002.5,-739.441 1009.5,-739.441"/>
</g>
<!-- bdstrategy&#45;&gt;FirstGuess -->
<g id="edge45" class="edge"><title>bdstrategy&#45;&gt;FirstGuess</title>
<path fill="none" stroke="black" d="M1029.14,-695.256C1044.32,-685.586 1064.49,-672.729 1081.88,-661.649"/>
<polygon fill="black" stroke="black" points="1084.13,-664.368 1090.68,-656.042 1080.37,-658.464 1084.13,-664.368"/>
</g>
<!-- bdstrategy&#45;&gt;Interpol_ec_sst -->
<g id="edge46" class="edge"><title>bdstrategy&#45;&gt;Interpol_ec_sst</title>
<path fill="none" stroke="black" d="M993.066,-693.662C986.137,-684.91 977.438,-673.922 969.604,-664.026"/>
<polygon fill="black" stroke="black" points="972.235,-661.71 963.284,-656.042 966.746,-666.055 972.235,-661.71"/>
</g>
<!-- ConstClimsfx -->
<g id="node42" class="node"><title>ConstClimsfx</title>
<ellipse fill="lightgreen" stroke="black" cx="786" cy="-1229" rx="64.9885" ry="18"/>
<text text-anchor="middle" x="786" y="-1225.3" font-family="Times,serif" font-size="14.00">Const.Clim.sfx</text>
</g>
<!-- PGDlfi -->
<g id="node43" class="node"><title>PGDlfi</title>
<ellipse fill="lightgreen" stroke="black" cx="907" cy="-1229" rx="38.1938" ry="18"/>
<text text-anchor="middle" x="907" y="-1225.3" font-family="Times,serif" font-size="14.00">PGD.lfi</text>
</g>
<!-- ecoclimapII_af_covers_parambin -->
<g id="node44" class="node"><title>ecoclimapII_af_covers_parambin</title>
<ellipse fill="lightgreen" stroke="black" cx="1095" cy="-1229" rx="131.877" ry="18"/>
<text text-anchor="middle" x="1095" y="-1225.3" font-family="Times,serif" font-size="14.00">ecoclimapII_af_covers_param.bin</text>
</g>
<!-- ecoclimapII_af_covers_paramdat -->
<g id="node45" class="node"><title>ecoclimapII_af_covers_paramdat</title>
<ellipse fill="lightgreen" stroke="black" cx="1377" cy="-1229" rx="131.877" ry="18"/>
<text text-anchor="middle" x="1377" y="-1225.3" font-family="Times,serif" font-size="14.00">ecoclimapII_af_covers_param.dat</text>
</g>
<!-- ecoclimapII_eu_covers_parambin -->
<g id="node46" class="node"><title>ecoclimapII_eu_covers_parambin</title>
<ellipse fill="lightgreen" stroke="black" cx="1661" cy="-1229" rx="133.776" ry="18"/>
<text text-anchor="middle" x="1661" y="-1225.3" font-family="Times,serif" font-size="14.00">ecoclimapII_eu_covers_param.bin</text>
</g>
<!-- ecoclimapII_eu_covers_paramdat -->
<g id="node47" class="node"><title>ecoclimapII_eu_covers_paramdat</title>
<ellipse fill="lightgreen" stroke="black" cx="1946" cy="-1229" rx="133.477" ry="18"/>
<text text-anchor="middle" x="1946" y="-1225.3" font-family="Times,serif" font-size="14.00">ecoclimapII_eu_covers_param.dat</text>
</g>
<!-- ecoclimapI_covers_parambin -->
<g id="node48" class="node"><title>ecoclimapI_covers_parambin</title>
<ellipse fill="lightgreen" stroke="black" cx="2216" cy="-1229" rx="118.079" ry="18"/>
<text text-anchor="middle" x="2216" y="-1225.3" font-family="Times,serif" font-size="14.00">ecoclimapI_covers_param.bin</text>
</g>
<!-- ecoclimapI_covers_paramdat -->
<g id="node49" class="node"><title>ecoclimapI_covers_paramdat</title>
<ellipse fill="lightgreen" stroke="black" cx="2470" cy="-1229" rx="117.779" ry="18"/>
<text text-anchor="middle" x="2470" y="-1225.3" font-family="Times,serif" font-size="14.00">ecoclimapI_covers_param.dat</text>
</g>
<!-- gmted2010dir -->
<g id="node50" class="node"><title>gmted2010dir</title>
<ellipse fill="lightgreen" stroke="black" cx="2669" cy="-1229" rx="63.0888" ry="18"/>
<text text-anchor="middle" x="2669" y="-1225.3" font-family="Times,serif" font-size="14.00">gmted2010.dir</text>
</g>
<!-- gmted2010hdr -->
<g id="node51" class="node"><title>gmted2010hdr</title>
<ellipse fill="lightgreen" stroke="black" cx="2815" cy="-1229" rx="64.9885" ry="18"/>
<text text-anchor="middle" x="2815" y="-1225.3" font-family="Times,serif" font-size="14.00">gmted2010.hdr</text>
</g>
<!-- mMM -->
<g id="node52" class="node"><title>mMM</title>
<ellipse fill="lightgreen" stroke="black" cx="2937" cy="-1229" rx="38.9931" ry="18"/>
<text text-anchor="middle" x="2937" y="-1225.3" font-family="Times,serif" font-size="14.00">m$MM</text>
</g>
<!-- LISTE_NOIRE_DIAP -->
<g id="node53" class="node"><title>LISTE_NOIRE_DIAP</title>
<ellipse fill="lightsalmon" stroke="black" cx="925" cy="-1007" rx="90.9839" ry="18"/>
<text text-anchor="middle" x="925" y="-1003.3" font-family="Times,serif" font-size="14.00">LISTE_NOIRE_DIAP</text>
</g>
<!-- LISTE_NOIRE_DIAP&#45;&gt;Bator -->
<g id="edge52" class="edge"><title>LISTE_NOIRE_DIAP&#45;&gt;Bator</title>
<path fill="none" stroke="black" d="M925,-988.937C925,-980.987 925,-971.313 925,-962.313"/>
<polygon fill="black" stroke="black" points="928.5,-962.199 925,-952.199 921.5,-962.199 928.5,-962.199"/>
</g>
<!-- LISTE_LOC -->
<g id="node54" class="node"><title>LISTE_LOC</title>
<ellipse fill="lightsalmon" stroke="black" cx="1091" cy="-1007" rx="56.59" ry="18"/>
<text text-anchor="middle" x="1091" y="-1003.3" font-family="Times,serif" font-size="14.00">LISTE_LOC</text>
</g>
<!-- LISTE_LOC&#45;&gt;Bator -->
<g id="edge53" class="edge"><title>LISTE_LOC&#45;&gt;Bator</title>
<path fill="none" stroke="black" d="M1058.99,-992.118C1035.48,-981.919 1003.05,-967.854 975.987,-956.115"/>
<polygon fill="black" stroke="black" points="977.228,-952.838 966.661,-952.07 974.443,-959.26 977.228,-952.838"/>
</g>
<!-- param_batorcfg -->
<g id="node55" class="node"><title>param_batorcfg</title>
<g id="a_node55"><a xlink:href="https://hirlam.org/trac/wiki/HarmonieSystemDocumentation/ObservationPreprocessing/Bator#param.cfg" xlink:title="param_bator.cfg" target="_blank">
<ellipse fill="lightsalmon" stroke="black" cx="1235" cy="-1007" rx="69.5877" ry="18"/>
<text text-anchor="middle" x="1235" y="-1003.3" font-family="Times,serif" font-size="14.00">param_bator.cfg</text>
</a>
</g>
</g>
<!-- param_batorcfg&#45;&gt;Bator -->
<g id="edge54" class="edge"><title>param_batorcfg&#45;&gt;Bator</title>
<path fill="none" stroke="black" d="M1185.19,-994.432C1130.83,-981.806 1043.78,-961.588 985.523,-948.057"/>
<polygon fill="black" stroke="black" points="986.246,-944.632 975.713,-945.779 984.662,-951.45 986.246,-944.632"/>
</g>
</g>
</svg>
